<svg width="102" height="102" viewBox="0 0 102 102" fill="none" xmlns="http://www.w3.org/2000/svg">
<rect width="102" height="102" rx="26" fill="#FED369"/>
<path d="M32.305 61.0049C32.5878 61.0053 32.8678 60.9498 33.129 60.8416C33.3902 60.7334 33.6275 60.5747 33.8271 60.3745L45.9375 48.264L50.8729 53.1995C51.0728 53.3994 51.3101 53.558 51.5713 53.6661C51.8324 53.7743 52.1124 53.83 52.395 53.83C52.6777 53.83 52.9576 53.7743 53.2188 53.6661C53.4799 53.558 53.7172 53.3994 53.9171 53.1995L67.4617 39.6549L67.4609 44.5024C67.4609 45.0733 67.6877 45.6208 68.0914 46.0245C68.495 46.4281 69.0425 46.6549 69.6134 46.6549C70.1843 46.6549 70.7318 46.4281 71.1355 46.0245C71.5391 45.6208 71.7659 45.0733 71.7659 44.5024L71.7675 34.4574C71.7675 33.8866 71.5407 33.3391 71.1371 32.9354C70.7334 32.5317 70.1859 32.3049 69.615 32.3049H59.57C58.9991 32.3049 58.4517 32.5317 58.048 32.9354C57.6443 33.3391 57.4175 33.8866 57.4175 34.4574C57.4175 35.0283 57.6443 35.5758 58.048 35.9795C58.4517 36.3831 58.9991 36.6099 59.57 36.6099H64.4184L52.395 48.6333L47.4596 43.6978C47.2597 43.4979 47.0224 43.3394 46.7613 43.2312C46.5001 43.123 46.2202 43.0673 45.9375 43.0673C45.6549 43.0673 45.3749 43.123 45.1138 43.2312C44.8526 43.3394 44.6153 43.4979 44.4154 43.6978L30.783 57.3303C30.4819 57.6314 30.2769 58.0149 30.1938 58.4325C30.1108 58.85 30.1534 59.2828 30.3163 59.6761C30.4792 60.0695 30.7551 60.4057 31.1091 60.6422C31.4631 60.8787 31.8793 61.0049 32.305 61.0049Z" fill="white"/>
<path d="M69.6151 65.3098H32.3051C31.7342 65.3098 31.1867 65.5366 30.783 65.9403C30.3794 66.3439 30.1526 66.8914 30.1526 67.4623C30.1526 68.0332 30.3794 68.5807 30.783 68.9844C31.1867 69.388 31.7342 69.6148 32.3051 69.6148H69.6151C70.1859 69.6148 70.7334 69.388 71.1371 68.9844C71.5408 68.5807 71.7676 68.0332 71.7676 67.4623C71.7676 66.8914 71.5408 66.3439 71.1371 65.9403C70.7334 65.5366 70.1859 65.3098 69.6151 65.3098Z" fill="white"/>
</svg>
