<svg width="1904" height="1095" viewBox="0 0 1904 1095" fill="none" xmlns="http://www.w3.org/2000/svg">
<path d="M16 16L1904 16V993H16V16Z" fill="#111827"/>
<path d="M16 16L1316 16L997.5 993H16V16Z" fill="#000052"/>
<path d="M65.4809 691.65C-66.2958 619.461 -229.905 646.866 -295.237 669.593C-297.322 776.54 -300.241 992.04 -295.237 998.457C-290.233 1004.87 495.006 1001.13 887 998.457V894.183C803.597 830.014 724.364 775.872 480.411 803.946C294.072 825.389 230.202 781.888 65.4809 691.65Z" fill="white" fill-opacity="0.04"/>
<path d="M191.946 835.576C57.1691 788.08 -104.937 818.571 -169.143 839.754C-166.448 921.627 -159.738 1086.53 -154.456 1091.14C-149.174 1095.75 634.561 1047.09 1025.77 1022.19L1021.11 942.477C934.985 898.291 853.469 861.525 611.184 897.214C426.12 924.474 360.416 894.947 191.946 835.576Z" fill="white" fill-opacity="0.04"/>
<path d="M180.717 200.628C-68.3777 189.022 -119.029 334.672 -199.663 301.033C-203.295 140.237 -248.478 -176.064 -242.383 -185.754C-236.288 -195.444 631.569 -176.944 1114.04 -176.124L1115.08 -19.3315C1013.07 77.837 1094.44 103.301 724.035 98.4648C462.355 95.0482 459.54 213.62 180.717 200.628Z" fill="white" fill-opacity="0.04"/>
<path d="M9.71699 137.628C-239.378 126.022 -290.029 271.672 -370.663 238.033C-374.295 77.2372 -419.478 -239.064 -413.383 -248.754C-407.288 -258.444 460.569 -239.944 943.037 -239.124L944.077 -82.3315C842.07 14.837 923.445 40.3011 553.035 35.4648C291.355 32.0482 288.54 150.62 9.71699 137.628Z" fill="white" fill-opacity="0.04"/>
</svg>
