<svg width="375" height="667" viewBox="0 0 375 667" fill="none" xmlns="http://www.w3.org/2000/svg">
<g clip-path="url(#clip0_5530_6)">
<rect width="375" height="667" fill="#4B4AEF"/>
<path d="M51.5093 606.562C25.2603 592.183 -7.32944 597.642 -20.3432 602.169C-20.7585 623.472 -21.34 666.398 -20.3432 667.676C-19.3464 668.954 137.068 668.209 215.15 667.676V646.905C198.537 634.123 182.754 623.339 134.16 628.931C97.0429 633.202 84.3205 624.537 51.5093 606.562Z" fill="white" fill-opacity="0.04"/>
<path d="M76.6999 635.231C49.8534 625.77 17.563 631.844 4.7736 636.064C5.3104 652.372 6.64704 685.219 7.69923 686.138C8.75141 687.057 164.866 677.364 242.792 672.403L241.864 656.525C224.708 647.724 208.471 640.4 160.209 647.509C123.346 652.939 110.258 647.058 76.6999 635.231Z" fill="white" fill-opacity="0.04"/>
<path d="M74.4634 78.7549C24.8456 76.443 14.7562 105.456 -1.30548 98.7549C-2.0291 66.7255 -11.0292 3.7204 -9.81514 1.7903C-8.60109 -0.139803 164.27 3.54512 260.374 3.70858L260.581 34.9405C240.262 54.2958 256.472 59.3681 182.689 58.4047C130.564 57.7241 130.003 81.3427 74.4634 78.7549Z" fill="white" fill-opacity="0.04"/>
<path d="M40.4014 66.2057C-9.21646 63.8938 -19.3059 92.9064 -35.3675 86.2057C-36.0911 54.1763 -45.0912 -8.82879 -43.8771 -10.7589C-42.6631 -12.689 130.208 -9.00407 226.312 -8.84062L226.519 22.3913C206.2 41.7466 222.41 46.8189 148.627 45.8555C96.5017 45.1749 95.9411 68.7935 40.4014 66.2057Z" fill="white" fill-opacity="0.04"/>
</g>
<defs>
<clipPath id="clip0_5530_6">
<rect width="375" height="667" fill="white"/>
</clipPath>
</defs>
</svg>
