<svg width="629" height="651" viewBox="0 0 629 651" fill="none" xmlns="http://www.w3.org/2000/svg">
<circle cx="328" cy="361" r="288.5" stroke="#DDDDED" stroke-width="3" stroke-dasharray="8 8"/>
<circle cx="328" cy="361" r="218.5" stroke="#DDDDED" stroke-width="3" stroke-dasharray="8 8"/>
<circle cx="519" cy="110" r="110" fill="#3ADAD9"/>
<circle cx="545" cy="307" r="15" fill="#25D68B"/>
<circle cx="459" cy="133" r="15" fill="white" fill-opacity="0.29"/>
<circle cx="569" cy="77" r="10" fill="white" fill-opacity="0.29"/>
<circle cx="479" cy="536" r="100" fill="#FD9B79"/>
<circle cx="418" cy="510" r="9" fill="#F49159"/>
<circle cx="218" cy="44" r="12" fill="#EC844A"/>
<circle cx="522" cy="572" r="26" fill="#F49159"/>
<circle cx="90" cy="243" r="90" fill="#F3C758"/>
<circle cx="126" cy="547" r="25" fill="#4A81EC"/>
<circle cx="114" cy="210" r="21" fill="white" fill-opacity="0.25"/>
<circle cx="33.5" cy="260.5" r="7.5" fill="white" fill-opacity="0.25"/>
<g clip-path="url(#clip0_4621_152)">
<path d="M519 55.5776C516.809 55.5776 514.701 56.2367 512.902 57.4836C512.371 57.8522 512.236 58.5851 512.602 59.1208C512.968 59.6564 513.696 59.7917 514.227 59.4233C515.634 58.4478 517.284 57.9322 519 57.9322C523.649 57.9322 527.431 61.7428 527.431 66.4267C527.431 71.1106 523.649 74.9214 519 74.9214C514.351 74.9214 510.569 71.1106 510.569 66.4267C510.569 65.045 510.887 63.7278 511.515 62.5119C511.813 61.935 511.591 61.2242 511.018 60.9242C510.445 60.6244 509.74 60.8483 509.442 61.4251C508.651 62.9583 508.232 64.6878 508.232 66.4267C508.232 72.409 513.063 77.2759 519 77.2759C524.938 77.2759 529.768 72.409 529.768 66.4267C529.768 60.4445 524.938 55.5776 519 55.5776Z" fill="white"/>
<path d="M558.911 119.37L547.379 91.4541C547.198 91.0152 546.772 90.7292 546.3 90.7292H534.809C537.044 87.6827 538.904 84.6481 540.357 81.6686C542.932 76.3883 544.238 71.2603 544.238 66.4269C544.237 52.4064 532.916 41 519 41C505.085 41 493.763 52.4064 493.763 66.4267C493.763 71.2602 495.069 76.3883 497.644 81.6684C499.097 84.648 500.957 87.6827 503.192 90.7291H491.701C491.229 90.7291 490.803 91.0152 490.622 91.4539L482.764 110.477C482.516 111.077 482.798 111.766 483.394 112.016C483.541 112.077 483.692 112.107 483.842 112.107C484.3 112.107 484.734 111.834 484.921 111.381L486.042 108.667H493.997L489.875 118.645H481.921L483.116 115.753C483.364 115.152 483.082 114.463 482.486 114.214C481.89 113.964 481.206 114.248 480.958 114.848L479.09 119.37C478.94 119.734 478.98 120.149 479.197 120.476C479.414 120.803 479.778 121 480.169 121H557.832C558.222 121 558.587 120.803 558.804 120.476C559.021 120.149 559.061 119.734 558.911 119.37ZM496.1 66.4267C496.1 53.7045 506.373 43.3544 519 43.3544C531.628 43.3544 541.901 53.7047 541.901 66.4267C541.901 71.7616 540.061 80.2866 531.55 91.1503C531.541 91.1605 531.534 91.1712 531.525 91.1817C531.091 91.7359 530.639 92.2961 530.169 92.8625C525.492 98.4972 520.759 102.612 519 104.074C517.246 102.617 512.536 98.5228 507.862 92.8989C507.38 92.3191 506.918 91.7458 506.473 91.1786C506.466 91.1695 506.459 91.1602 506.452 91.1512C497.941 80.2883 496.1 71.7636 496.1 66.4267ZM492.48 93.0836H500.434L497.533 100.107H489.579L492.48 93.0836ZM499.312 118.646L506.616 100.966L527.399 118.646H499.312ZM531.022 118.646L506.904 98.13C506.619 97.8877 506.237 97.7969 505.875 97.8853C505.513 97.9736 505.215 98.2306 505.072 98.577L496.782 118.645H492.406L496.827 107.942C496.977 107.579 496.937 107.164 496.72 106.837C496.504 106.509 496.139 106.312 495.748 106.312H487.015L488.606 102.461H498.312C498.784 102.461 499.21 102.175 499.391 101.736L502.965 93.0834H504.993C505.345 93.5256 505.703 93.968 506.07 94.4102C512.099 101.665 518.036 106.323 518.285 106.517C518.496 106.682 518.748 106.763 519 106.763C519.253 106.763 519.505 106.681 519.715 106.517C519.853 106.41 521.709 104.953 524.352 102.461H537.583C538.229 102.461 538.752 101.934 538.752 101.284C538.752 100.634 538.229 100.107 537.583 100.107H526.76C528.38 98.4656 530.151 96.5522 531.931 94.4103C532.298 93.9681 532.656 93.5259 533.008 93.0836H545.521L548.422 100.107H542.257C541.612 100.107 541.088 100.634 541.088 101.284C541.088 101.934 541.611 102.461 542.257 102.461H549.394L550.985 106.313H526.912C526.424 106.313 525.988 106.618 525.817 107.078C525.647 107.538 525.778 108.057 526.146 108.379L537.886 118.646H531.022ZM541.451 118.646L530.041 108.667H551.958L556.08 118.646H541.451Z" fill="white"/>
</g>
<path d="M492.212 167V147.26H495.208L502.208 160.168L509.18 147.26H512.12V167H508.872V153.7L503.216 164.004H501.116L495.46 153.756V167H492.212ZM521.197 167.28C520.207 167.28 519.321 167.093 518.537 166.72C517.771 166.328 517.165 165.805 516.717 165.152C516.287 164.499 516.073 163.761 516.073 162.94C516.073 161.932 516.334 161.139 516.857 160.56C517.379 159.963 518.229 159.533 519.405 159.272C520.581 159.011 522.158 158.88 524.137 158.88H525.117V158.292C525.117 157.359 524.911 156.687 524.501 156.276C524.09 155.865 523.399 155.66 522.429 155.66C521.663 155.66 520.879 155.781 520.077 156.024C519.274 156.248 518.462 156.603 517.641 157.088L516.633 154.708C517.118 154.372 517.687 154.083 518.341 153.84C519.013 153.579 519.713 153.383 520.441 153.252C521.187 153.103 521.887 153.028 522.541 153.028C524.538 153.028 526.022 153.495 526.993 154.428C527.963 155.343 528.449 156.771 528.449 158.712V167H525.173V164.816C524.855 165.581 524.351 166.188 523.661 166.636C522.97 167.065 522.149 167.28 521.197 167.28ZM521.925 164.872C522.839 164.872 523.595 164.555 524.193 163.92C524.809 163.285 525.117 162.483 525.117 161.512V160.896H524.165C522.41 160.896 521.187 161.036 520.497 161.316C519.825 161.577 519.489 162.063 519.489 162.772C519.489 163.388 519.703 163.892 520.133 164.284C520.562 164.676 521.159 164.872 521.925 164.872ZM532.561 172.04V153.308H535.977V155.492C536.369 154.745 536.957 154.148 537.741 153.7C538.544 153.252 539.449 153.028 540.457 153.028C541.652 153.028 542.697 153.317 543.593 153.896C544.508 154.475 545.217 155.296 545.721 156.36C546.225 157.405 546.477 158.665 546.477 160.14C546.477 161.596 546.225 162.865 545.721 163.948C545.217 165.012 544.517 165.833 543.621 166.412C542.725 166.991 541.67 167.28 540.457 167.28C539.486 167.28 538.609 167.075 537.825 166.664C537.06 166.235 536.472 165.665 536.061 164.956V172.04H532.561ZM539.477 164.62C540.522 164.62 541.362 164.247 541.997 163.5C542.632 162.735 542.949 161.615 542.949 160.14C542.949 158.647 542.632 157.536 541.997 156.808C541.362 156.061 540.522 155.688 539.477 155.688C538.432 155.688 537.592 156.061 536.957 156.808C536.322 157.536 536.005 158.647 536.005 160.14C536.005 161.615 536.322 162.735 536.957 163.5C537.592 164.247 538.432 164.62 539.477 164.62Z" fill="white"/>
<path d="M50.91 283.22C49.2967 283.22 47.9107 282.897 46.752 282.252C45.608 281.592 44.728 280.668 44.112 279.48C43.496 278.277 43.188 276.862 43.188 275.234C43.188 273.606 43.496 272.198 44.112 271.01C44.728 269.822 45.608 268.905 46.752 268.26C47.9107 267.6 49.2967 267.27 50.91 267.27C51.9513 267.27 52.934 267.431 53.858 267.754C54.7967 268.077 55.5667 268.539 56.168 269.14L55.244 271.384C54.584 270.827 53.9093 270.423 53.22 270.174C52.5307 269.91 51.79 269.778 50.998 269.778C49.4287 269.778 48.2333 270.255 47.412 271.208C46.5907 272.147 46.18 273.489 46.18 275.234C46.18 276.979 46.5907 278.329 47.412 279.282C48.2333 280.235 49.4287 280.712 50.998 280.712C51.79 280.712 52.5307 280.587 53.22 280.338C53.9093 280.074 54.584 279.663 55.244 279.106L56.168 281.35C55.5667 281.937 54.7967 282.399 53.858 282.736C52.934 283.059 51.9513 283.22 50.91 283.22ZM61.9569 283.22C61.1796 283.22 60.4829 283.073 59.8669 282.78C59.2656 282.472 58.7889 282.061 58.4369 281.548C58.0996 281.035 57.9309 280.455 57.9309 279.81C57.9309 279.018 58.1363 278.395 58.5469 277.94C58.9576 277.471 59.6249 277.133 60.5489 276.928C61.4729 276.723 62.7123 276.62 64.2669 276.62H65.0369V276.158C65.0369 275.425 64.8756 274.897 64.5529 274.574C64.2303 274.251 63.6876 274.09 62.9249 274.09C62.3236 274.09 61.7076 274.185 61.0769 274.376C60.4463 274.552 59.8083 274.831 59.1629 275.212L58.3709 273.342C58.7523 273.078 59.1996 272.851 59.7129 272.66C60.2409 272.455 60.7909 272.301 61.3629 272.198C61.9496 272.081 62.4996 272.022 63.0129 272.022C64.5823 272.022 65.7483 272.389 66.5109 273.122C67.2736 273.841 67.6549 274.963 67.6549 276.488V283H65.0809V281.284C64.8316 281.885 64.4356 282.362 63.8929 282.714C63.3503 283.051 62.7049 283.22 61.9569 283.22ZM62.5289 281.328C63.2476 281.328 63.8416 281.079 64.3109 280.58C64.7949 280.081 65.0369 279.451 65.0369 278.688V278.204H64.2889C62.9103 278.204 61.9496 278.314 61.4069 278.534C60.8789 278.739 60.6149 279.121 60.6149 279.678C60.6149 280.162 60.7836 280.558 61.1209 280.866C61.4583 281.174 61.9276 281.328 62.5289 281.328ZM74.6262 283.22C73.3502 283.22 72.4042 282.875 71.7882 282.186C71.1868 281.482 70.8862 280.455 70.8862 279.106V267.49H73.6362V278.974C73.6362 280.294 74.1935 280.954 75.3082 280.954C75.4695 280.954 75.6308 280.947 75.7922 280.932C75.9535 280.917 76.1075 280.888 76.2542 280.844L76.2102 283.022C75.6822 283.154 75.1542 283.22 74.6262 283.22ZM83.5461 283.22C82.3288 283.22 81.2801 282.993 80.4001 282.538C79.5201 282.083 78.8381 281.438 78.3541 280.602C77.8848 279.766 77.6501 278.776 77.6501 277.632C77.6501 276.517 77.8775 275.542 78.3321 274.706C78.8015 273.87 79.4395 273.217 80.2461 272.748C81.0675 272.264 81.9988 272.022 83.0401 272.022C84.5655 272.022 85.7681 272.506 86.6481 273.474C87.5428 274.442 87.9901 275.762 87.9901 277.434V278.248H80.2901C80.4955 280.169 81.5955 281.13 83.5901 281.13C84.1915 281.13 84.7928 281.042 85.3941 280.866C85.9955 280.675 86.5455 280.382 87.0441 279.986L87.8141 281.834C87.3008 282.259 86.6555 282.597 85.8781 282.846C85.1008 283.095 84.3235 283.22 83.5461 283.22ZM83.1501 273.892C82.3435 273.892 81.6908 274.141 81.1921 274.64C80.6935 275.139 80.3928 275.813 80.2901 276.664H85.7021C85.6435 275.769 85.3941 275.087 84.9541 274.618C84.5288 274.134 83.9275 273.892 83.1501 273.892ZM90.608 283V272.242H93.292V273.914C93.6586 273.298 94.15 272.829 94.766 272.506C95.3966 272.183 96.1006 272.022 96.878 272.022C99.4153 272.022 100.684 273.496 100.684 276.444V283H97.934V276.576C97.934 275.74 97.7726 275.131 97.45 274.75C97.142 274.369 96.658 274.178 95.998 274.178C95.1913 274.178 94.546 274.435 94.062 274.948C93.5926 275.447 93.358 276.114 93.358 276.95V283H90.608ZM108.053 283.22C107.114 283.22 106.286 282.993 105.567 282.538C104.863 282.083 104.313 281.438 103.917 280.602C103.521 279.751 103.323 278.754 103.323 277.61C103.323 276.451 103.521 275.461 103.917 274.64C104.313 273.804 104.863 273.159 105.567 272.704C106.286 272.249 107.114 272.022 108.053 272.022C108.816 272.022 109.505 272.191 110.121 272.528C110.737 272.865 111.199 273.313 111.507 273.87V267.49H114.257V283H111.573V281.218C111.28 281.834 110.818 282.325 110.187 282.692C109.556 283.044 108.845 283.22 108.053 283.22ZM108.823 281.13C109.644 281.13 110.304 280.837 110.803 280.25C111.302 279.649 111.551 278.769 111.551 277.61C111.551 276.437 111.302 275.564 110.803 274.992C110.304 274.405 109.644 274.112 108.823 274.112C108.002 274.112 107.342 274.405 106.843 274.992C106.344 275.564 106.095 276.437 106.095 277.61C106.095 278.769 106.344 279.649 106.843 280.25C107.342 280.837 108.002 281.13 108.823 281.13ZM121.091 283.22C120.313 283.22 119.617 283.073 119.001 282.78C118.399 282.472 117.923 282.061 117.571 281.548C117.233 281.035 117.065 280.455 117.065 279.81C117.065 279.018 117.27 278.395 117.681 277.94C118.091 277.471 118.759 277.133 119.683 276.928C120.607 276.723 121.846 276.62 123.401 276.62H124.171V276.158C124.171 275.425 124.009 274.897 123.687 274.574C123.364 274.251 122.821 274.09 122.059 274.09C121.457 274.09 120.841 274.185 120.211 274.376C119.58 274.552 118.942 274.831 118.297 275.212L117.505 273.342C117.886 273.078 118.333 272.851 118.847 272.66C119.375 272.455 119.925 272.301 120.497 272.198C121.083 272.081 121.633 272.022 122.147 272.022C123.716 272.022 124.882 272.389 125.645 273.122C126.407 273.841 126.789 274.963 126.789 276.488V283H124.215V281.284C123.965 281.885 123.569 282.362 123.027 282.714C122.484 283.051 121.839 283.22 121.091 283.22ZM121.663 281.328C122.381 281.328 122.975 281.079 123.445 280.58C123.929 280.081 124.171 279.451 124.171 278.688V278.204H123.423C122.044 278.204 121.083 278.314 120.541 278.534C120.013 278.739 119.749 279.121 119.749 279.678C119.749 280.162 119.917 280.558 120.255 280.866C120.592 281.174 121.061 281.328 121.663 281.328ZM130.02 283V272.242H132.704V274.134C133.232 272.858 134.361 272.154 136.092 272.022L136.928 271.956L137.104 274.288L135.52 274.442C133.716 274.618 132.814 275.542 132.814 277.214V283H130.02Z" fill="white"/>
<path d="M434.928 586V571.648H429.12V569.08H443.808V571.648H438V586H434.928ZM445.754 571.744V568.816H449.114V571.744H445.754ZM445.946 586V574.264H448.946V586H445.946ZM452.591 586V574.264H455.519V576.064C455.871 575.424 456.359 574.928 456.983 574.576C457.607 574.208 458.327 574.024 459.143 574.024C460.903 574.024 462.055 574.792 462.599 576.328C462.967 575.608 463.495 575.048 464.183 574.648C464.871 574.232 465.655 574.024 466.535 574.024C469.175 574.024 470.495 575.632 470.495 578.848V586H467.495V578.968C467.495 578.072 467.343 577.416 467.039 577C466.751 576.584 466.255 576.376 465.551 576.376C464.767 576.376 464.151 576.656 463.703 577.216C463.255 577.76 463.031 578.52 463.031 579.496V586H460.031V578.968C460.031 578.072 459.879 577.416 459.575 577C459.287 576.584 458.799 576.376 458.111 576.376C457.327 576.376 456.711 576.656 456.263 577.216C455.815 577.76 455.591 578.52 455.591 579.496V586H452.591ZM479.854 586.24C478.526 586.24 477.382 585.992 476.422 585.496C475.462 585 474.718 584.296 474.19 583.384C473.678 582.472 473.422 581.392 473.422 580.144C473.422 578.928 473.67 577.864 474.166 576.952C474.678 576.04 475.374 575.328 476.254 574.816C477.15 574.288 478.166 574.024 479.302 574.024C480.966 574.024 482.278 574.552 483.238 575.608C484.214 576.664 484.702 578.104 484.702 579.928V580.816H476.302C476.526 582.912 477.726 583.96 479.902 583.96C480.558 583.96 481.214 583.864 481.87 583.672C482.526 583.464 483.126 583.144 483.67 582.712L484.51 584.728C483.95 585.192 483.246 585.56 482.398 585.832C481.55 586.104 480.702 586.24 479.854 586.24ZM479.422 576.064C478.542 576.064 477.83 576.336 477.286 576.88C476.742 577.424 476.414 578.16 476.302 579.088H482.206C482.142 578.112 481.87 577.368 481.39 576.856C480.926 576.328 480.27 576.064 479.422 576.064ZM491.638 586.24C490.246 586.24 489.214 585.864 488.542 585.112C487.886 584.344 487.558 583.224 487.558 581.752V569.08H490.558V581.608C490.558 583.048 491.166 583.768 492.382 583.768C492.558 583.768 492.734 583.76 492.91 583.744C493.086 583.728 493.254 583.696 493.414 583.648L493.366 586.024C492.79 586.168 492.214 586.24 491.638 586.24ZM495.51 571.744V568.816H498.87V571.744H495.51ZM495.702 586V574.264H498.702V586H495.702ZM502.299 586V574.264H505.227V576.088C505.627 575.416 506.163 574.904 506.835 574.552C507.523 574.2 508.291 574.024 509.139 574.024C511.907 574.024 513.291 575.632 513.291 578.848V586H510.291V578.992C510.291 578.08 510.115 577.416 509.763 577C509.427 576.584 508.899 576.376 508.179 576.376C507.299 576.376 506.595 576.656 506.067 577.216C505.555 577.76 505.299 578.488 505.299 579.4V586H502.299ZM522.602 586.24C521.274 586.24 520.13 585.992 519.17 585.496C518.21 585 517.466 584.296 516.938 583.384C516.426 582.472 516.17 581.392 516.17 580.144C516.17 578.928 516.418 577.864 516.914 576.952C517.426 576.04 518.122 575.328 519.002 574.816C519.898 574.288 520.914 574.024 522.05 574.024C523.714 574.024 525.026 574.552 525.986 575.608C526.962 576.664 527.45 578.104 527.45 579.928V580.816H519.05C519.274 582.912 520.474 583.96 522.65 583.96C523.306 583.96 523.962 583.864 524.618 583.672C525.274 583.464 525.874 583.144 526.418 582.712L527.258 584.728C526.698 585.192 525.994 585.56 525.146 585.832C524.298 586.104 523.45 586.24 522.602 586.24ZM522.17 576.064C521.29 576.064 520.578 576.336 520.034 576.88C519.49 577.424 519.162 578.16 519.05 579.088H524.954C524.89 578.112 524.618 577.368 524.138 576.856C523.674 576.328 523.018 576.064 522.17 576.064Z" fill="white"/>
<g clip-path="url(#clip1_4621_152)">
<path d="M77.5001 194C76.5138 194 75.7144 194.799 75.7144 195.786V199.357H79.2857V195.786C79.2857 194.799 78.4863 194 77.5001 194Z" fill="white"/>
<path d="M102.5 194C101.514 194 100.714 194.799 100.714 195.786V199.357H104.286V195.786C104.286 194.799 103.486 194 102.5 194Z" fill="white"/>
<path d="M109.643 199.357H104.286V206.5C104.286 207.486 103.486 208.286 102.5 208.286C101.514 208.286 100.714 207.486 100.714 206.5V199.357H79.2857V206.5C79.2857 207.486 78.4862 208.286 77.4999 208.286C76.5137 208.286 75.7142 207.486 75.7142 206.5V199.357H70.3571C67.3985 199.357 65 201.755 65 204.714V238.643C65 241.601 67.3985 244 70.3571 244H109.643C112.602 244 115 241.601 115 238.643V204.714C115 201.755 112.602 199.357 109.643 199.357ZM111.429 238.643C111.429 239.629 110.629 240.428 109.643 240.428H70.3571C69.3709 240.428 68.5714 239.629 68.5714 238.643V215.428H111.429V238.643Z" fill="white"/>
<path d="M79.2856 219H75.7142C74.728 219 73.9285 219.799 73.9285 220.786C73.9285 221.772 74.728 222.571 75.7142 222.571H79.2856C80.2719 222.571 81.0714 221.772 81.0714 220.786C81.0714 219.799 80.2719 219 79.2856 219Z" fill="white"/>
<path d="M91.7856 219H88.2142C87.228 219 86.4285 219.799 86.4285 220.786C86.4285 221.772 87.228 222.571 88.2142 222.571H91.7856C92.7719 222.571 93.5713 221.772 93.5713 220.786C93.5713 219.799 92.7719 219 91.7856 219Z" fill="white"/>
<path d="M104.286 219H100.714C99.7282 219 98.9287 219.799 98.9287 220.786C98.9287 221.772 99.7282 222.571 100.714 222.571H104.286C105.272 222.571 106.072 221.772 106.072 220.786C106.072 219.799 105.272 219 104.286 219Z" fill="white"/>
<path d="M79.2856 226.143H75.7142C74.728 226.143 73.9285 226.942 73.9285 227.928C73.9285 228.915 74.728 229.714 75.7142 229.714H79.2856C80.2719 229.714 81.0714 228.915 81.0714 227.928C81.0714 226.942 80.2719 226.143 79.2856 226.143Z" fill="white"/>
<path d="M91.7856 226.143H88.2142C87.228 226.143 86.4285 226.942 86.4285 227.928C86.4285 228.915 87.228 229.714 88.2142 229.714H91.7856C92.7719 229.714 93.5713 228.915 93.5713 227.928C93.5713 226.942 92.7719 226.143 91.7856 226.143Z" fill="white"/>
<path d="M104.286 226.143H100.714C99.7282 226.143 98.9287 226.942 98.9287 227.928C98.9287 228.915 99.7282 229.714 100.714 229.714H104.286C105.272 229.714 106.072 228.915 106.072 227.928C106.072 226.942 105.272 226.143 104.286 226.143Z" fill="white"/>
<path d="M79.2856 233.286H75.7142C74.728 233.286 73.9285 234.085 73.9285 235.071C73.9285 236.058 74.728 236.857 75.7142 236.857H79.2856C80.2719 236.857 81.0714 236.058 81.0714 235.071C81.0714 234.085 80.2719 233.286 79.2856 233.286Z" fill="white"/>
<path d="M91.7856 233.286H88.2142C87.228 233.286 86.4285 234.085 86.4285 235.071C86.4285 236.058 87.228 236.857 88.2142 236.857H91.7856C92.7719 236.857 93.5713 236.058 93.5713 235.071C93.5713 234.085 92.7719 233.286 91.7856 233.286Z" fill="white"/>
<path d="M104.286 233.286H100.714C99.7282 233.286 98.9287 234.085 98.9287 235.071C98.9287 236.058 99.7282 236.857 100.714 236.857H104.286C105.272 236.857 106.072 236.058 106.072 235.071C106.072 234.085 105.272 233.286 104.286 233.286Z" fill="white"/>
</g>
<g clip-path="url(#clip2_4621_152)">
<path d="M479 475C459.7 475 444 490.7 444 510C444 529.3 459.7 545 479 545C498.3 545 514 529.3 514 510C514 490.7 498.3 475 479 475ZM495.646 528.103C495.077 528.672 494.33 528.959 493.584 528.959C492.837 528.959 492.09 528.672 491.522 528.103L476.938 513.521C476.39 512.975 476.084 512.234 476.084 511.459V492.5C476.084 490.887 477.39 489.584 479 489.584C480.61 489.584 481.916 490.887 481.916 492.5V510.251L495.646 523.979C496.786 525.12 496.786 526.963 495.646 528.103Z" fill="white"/>
</g>
<defs>
<clipPath id="clip0_4621_152">
<rect width="80" height="80" fill="white" transform="translate(479 41)"/>
</clipPath>
<clipPath id="clip1_4621_152">
<rect width="50" height="50" fill="white" transform="translate(65 194)"/>
</clipPath>
<clipPath id="clip2_4621_152">
<rect width="70" height="70" fill="white" transform="translate(444 475)"/>
</clipPath>
</defs>
</svg>
